<svg width="47" height="47" viewBox="0 0 47 47" fill="none" xmlns="http://www.w3.org/2000/svg">
<path d="M46.1133 21.4063L25.5928 0.886542C24.4116 -0.295513 22.4948 -0.295513 21.312 0.886542L17.0513 5.14808L22.4563 10.5533C23.7127 10.1291 25.1532 10.4138 26.1542 11.415C27.1612 12.4224 27.4433 13.8754 27.0083 15.1361L32.2182 20.3453C33.4789 19.9108 34.9325 20.1917 35.9395 21.2001C37.3461 22.6063 37.3461 24.8858 35.9395 26.2932C34.5319 27.7006 32.2528 27.7006 30.8445 26.2932C29.7866 25.2343 29.5249 23.6796 30.0613 22.3761L25.2022 17.5174V30.303C25.5448 30.4729 25.8685 30.699 26.1542 30.9839C27.5608 32.3904 27.5608 34.6697 26.1542 36.0783C24.7476 37.4843 22.4669 37.4843 21.0613 36.0783C19.6547 34.6697 19.6547 32.3904 21.0613 30.9839C21.409 30.6367 21.8115 30.374 22.2411 30.1981V17.2942C21.8115 17.1183 21.4099 16.8578 21.0613 16.5082C19.996 15.4432 19.7396 13.8794 20.2861 12.5709L14.9574 7.24141L0.886367 21.3112C-0.295456 22.4942 -0.295456 24.4109 0.886367 25.5929L21.4079 46.1127C22.5894 47.2945 24.5055 47.2945 25.6887 46.1127L46.1133 25.688C47.2955 24.5058 47.2955 22.5881 46.1133 21.4063" fill="currentColor"/>
</svg>
