<svg width="24" height="24" viewBox="0 0 24 24" fill="none" xmlns="http://www.w3.org/2000/svg">
<g clip-path="url(#clip0_1_381)">
<path fill-rule="evenodd" clip-rule="evenodd" d="M0 0H24V24H0V0ZM18.3468 20.1196C17.2344 20.1196 16.6054 19.5394 16.122 18.7501L14.2892 19.8149C14.9513 21.1231 16.3045 22.1211 18.399 22.1211C20.541 22.1211 22.1361 21.0088 22.1361 18.9783C22.1361 17.0949 21.0542 16.2571 19.138 15.4354L18.5742 15.1939C17.6066 14.7749 17.1875 14.501 17.1875 13.8244C17.1875 13.277 17.6062 12.8579 18.2668 12.8579C18.9144 12.8579 19.3315 13.1311 19.7182 13.8244L21.4744 12.6968C20.7315 11.3901 19.7007 10.8911 18.2668 10.8911C16.2527 10.8911 14.9639 12.1787 14.9639 13.8701C14.9639 15.7063 16.045 16.5749 17.6725 17.2682L18.2363 17.5101C19.2649 17.96 19.8782 18.2339 19.8782 19.0072C19.8782 19.6526 19.2812 20.1196 18.3468 20.1196ZM9.60657 20.1055C8.83172 20.1055 8.50943 19.5741 8.15515 18.9455L6.31934 20.057C6.85115 21.1825 7.89686 22.117 9.70257 22.117C11.7011 22.117 13.0702 21.0541 13.0702 18.7189V11.0198H10.815V18.6884C10.815 19.8156 10.3475 20.1055 9.60657 20.1055Z" fill="currentColor"/>
</g>
<defs>
<clipPath id="clip0_1_381">
<rect width="24" height="24" fill="white"/>
</clipPath>
</defs>
</svg>
