<svg width="24" height="24" viewBox="0 0 24 24" fill="none" xmlns="http://www.w3.org/2000/svg">
<g clip-path="url(#clip0_17_305)">
<path d="M23.1585 5.47572C23.167 5.50752 23.1714 5.54031 23.1715 5.57326V10.6934C23.1715 10.7592 23.1542 10.8237 23.1212 10.8806C23.0883 10.9374 23.0409 10.9846 22.9839 11.0173L18.6865 13.4915V18.3957C18.6865 18.5291 18.6155 18.6523 18.4998 18.7195L9.52919 23.8836C9.50866 23.8952 9.48626 23.9027 9.46386 23.9106C9.45546 23.9134 9.44753 23.9186 9.43866 23.9209C9.37595 23.9374 9.31004 23.9374 9.24733 23.9209C9.23706 23.9181 9.22773 23.9125 9.21793 23.9088C9.1974 23.9013 9.17593 23.8948 9.15633 23.8836L0.187597 18.7195C0.130621 18.6868 0.0832804 18.6396 0.0503454 18.5828C0.0174103 18.5259 4.51444e-05 18.4614 0 18.3957L0 3.03509C0 3.00149 0.0046666 2.96883 0.0130665 2.93709C0.0158664 2.92636 0.0223997 2.91656 0.0261329 2.90583C0.0331328 2.88623 0.0396661 2.86616 0.0499326 2.84796C0.0569325 2.83583 0.067199 2.82603 0.0755989 2.81483C0.086332 2.7999 0.0961319 2.7845 0.108732 2.77143C0.119465 2.7607 0.133465 2.75276 0.145598 2.74343C0.159131 2.73223 0.171264 2.7201 0.186664 2.71123L4.67173 0.129203C4.72851 0.0965277 4.79288 0.0793304 4.85839 0.0793304C4.92391 0.0793304 4.98827 0.0965277 5.04506 0.129203L9.52966 2.71123H9.53059C9.54552 2.72056 9.55812 2.73223 9.57166 2.74296C9.58379 2.7523 9.59732 2.7607 9.60806 2.77096C9.62112 2.7845 9.63046 2.7999 9.64165 2.81483C9.64959 2.82603 9.66032 2.83583 9.66685 2.84796C9.67759 2.86663 9.68365 2.88623 9.69112 2.90583C9.69485 2.91656 9.70139 2.92636 9.70419 2.93756C9.71278 2.96936 9.71717 3.00215 9.71725 3.03509V12.6291L13.4543 10.4774V5.57279C13.4543 5.54012 13.4589 5.50699 13.4673 5.47572C13.4706 5.46452 13.4767 5.45472 13.4804 5.44399C13.4879 5.42439 13.4944 5.40432 13.5047 5.38612C13.5117 5.37399 13.5219 5.36419 13.5299 5.35299C13.5411 5.33806 13.5504 5.32266 13.5635 5.30959C13.5742 5.29886 13.5877 5.29093 13.5999 5.28159C13.6139 5.27039 13.626 5.25826 13.6409 5.24939L18.1265 2.66737C18.1832 2.63464 18.2476 2.61742 18.3131 2.61742C18.3786 2.61742 18.443 2.63464 18.4998 2.66737L22.9844 5.24939C23.0003 5.25873 23.0124 5.27039 23.0264 5.28113C23.0381 5.29046 23.0516 5.29886 23.0623 5.30913C23.0754 5.32266 23.0847 5.33806 23.0959 5.35299C23.1043 5.36419 23.1146 5.37399 23.1211 5.38612C23.1319 5.40432 23.1379 5.42439 23.1454 5.44399C23.1496 5.45472 23.1557 5.46452 23.1585 5.47572ZM22.4239 10.4774V6.21958L20.8546 7.12303L18.6865 8.37135V12.6291L22.4244 10.4774H22.4239ZM17.9393 18.1796V13.919L15.8067 15.137L9.71679 18.6127V22.9134L17.9393 18.1796ZM0.747589 3.68142V18.1796L8.9692 22.9129V18.6131L4.67406 16.1823L4.67266 16.1814L4.6708 16.1804C4.65633 16.172 4.6442 16.1599 4.63066 16.1496C4.619 16.1403 4.60546 16.1328 4.5952 16.1226L4.59426 16.1212C4.58213 16.1095 4.57373 16.095 4.56347 16.082C4.55413 16.0694 4.54293 16.0586 4.53547 16.0456L4.535 16.0442C4.5266 16.0302 4.52147 16.0134 4.5154 15.9975C4.50933 15.9835 4.5014 15.9704 4.49767 15.9555C4.493 15.9378 4.49207 15.9186 4.4902 15.9004C4.48833 15.8864 4.4846 15.8724 4.4846 15.8584V5.83318L2.31697 4.5844L0.747589 3.68142ZM4.85886 0.884258L1.12232 3.03509L4.85793 5.18593L8.594 3.03463L4.85793 0.884258H4.85886ZM6.80203 14.3073L8.96967 13.0594V3.68142L7.40029 4.58487L5.23219 5.83318V15.2112L6.80203 14.3073ZM18.3131 3.42242L14.577 5.57326L18.3131 7.72409L22.0487 5.57279L18.3131 3.42242ZM17.9393 8.37135L15.7712 7.12303L14.2019 6.21958V10.4774L16.3695 11.7252L17.9393 12.6291V8.37135ZM9.34253 17.9663L14.8225 14.8378L17.5618 13.2745L13.8285 11.1251L9.53012 13.5998L5.61252 15.8552L9.34253 17.9663Z" fill="currentColor"/>
</g>
<defs>
<clipPath id="clip0_17_305">
<rect width="24" height="24" fill="white"/>
</clipPath>
</defs>
</svg>
