<svg width="24" height="24" viewBox="0 0 24 24" fill="none" xmlns="http://www.w3.org/2000/svg">
<g clip-path="url(#clip0_1_457)">
<path d="M11.202 0.0064525C11.1505 0.0111395 10.9864 0.0275442 10.8388 0.0392618C7.43365 0.346263 4.24412 2.18358 2.224 5.00753C1.09911 6.57769 0.37965 8.35876 0.107802 10.2453C0.0117176 10.9038 0 11.0983 0 11.9912C0 12.8841 0.0117176 13.0786 0.107802 13.7371C0.759301 18.239 3.96289 22.0215 8.30778 23.4229C9.08583 23.6737 9.90606 23.8448 10.8388 23.9479C11.202 23.9877 12.7722 23.9877 13.1354 23.9479C14.7454 23.7698 16.1094 23.3714 17.4545 22.6847C17.6608 22.5793 17.7006 22.5511 17.6725 22.5277C17.6537 22.5136 16.7749 21.3348 15.7203 19.91L13.8033 17.3204L11.4012 13.7653C10.0795 11.8108 8.99209 10.2125 8.98272 10.2125C8.97334 10.2101 8.96397 11.7897 8.95928 13.7184C8.95225 17.0954 8.94991 17.2313 8.90772 17.311C8.84679 17.4258 8.79992 17.4727 8.70149 17.5243C8.6265 17.5618 8.56088 17.5688 8.20701 17.5688H7.80158L7.69378 17.5008C7.62347 17.4563 7.57192 17.3977 7.53676 17.3298L7.48755 17.2243L7.49224 12.5255L7.49927 7.82444L7.57192 7.73304C7.60941 7.68383 7.68909 7.62055 7.74534 7.59009C7.84142 7.54322 7.87892 7.53853 8.28435 7.53853C8.76243 7.53853 8.8421 7.55728 8.96631 7.6932C9.00146 7.7307 10.3021 9.68988 11.8582 12.0498C13.4143 14.4097 15.5422 17.6321 16.5874 19.214L18.4857 22.0895L18.5818 22.0262C19.4325 21.4731 20.3324 20.6857 21.0448 19.8655C22.5611 18.1242 23.5383 16.001 23.8664 13.7371C23.9625 13.0786 23.9742 12.8841 23.9742 11.9912C23.9742 11.0983 23.9625 10.9038 23.8664 10.2453C23.2149 5.74339 20.0113 1.96095 15.6664 0.559524C14.9001 0.31111 14.0846 0.140033 13.1706 0.0369183C12.9456 0.0134831 11.3965 -0.0122957 11.202 0.0064525ZM16.1094 7.25731C16.2219 7.31355 16.3132 7.42135 16.3461 7.53384C16.3648 7.59477 16.3695 8.89777 16.3648 11.8342L16.3578 16.0479L15.6149 14.9089L14.8696 13.77V10.707C14.8696 8.7267 14.879 7.61352 14.8931 7.55962C14.9306 7.42838 15.0126 7.32527 15.1251 7.26434C15.2212 7.21512 15.2563 7.21044 15.6243 7.21044C15.9711 7.21044 16.032 7.21512 16.1094 7.25731Z" fill="currentColor"/>
</g>
<defs>
<clipPath id="clip0_1_457">
<rect width="24" height="24" fill="white"/>
</clipPath>
</defs>
</svg>
