<svg width="24" height="24" viewBox="0 0 24 24" fill="none" xmlns="http://www.w3.org/2000/svg">
<g clip-path="url(#clip0_16_18)">
<path d="M11.8571 0.000198473C10.8675 0.00479676 9.92241 0.0891973 9.09085 0.236342C6.64117 0.669119 6.19641 1.57496 6.19641 3.24548V5.45173H11.9853V6.18715H4.02389C2.34148 6.18715 0.868311 7.19838 0.407523 9.12207C-0.123989 11.3271 -0.147565 12.703 0.407523 15.0054C0.819018 16.7192 1.80172 17.9403 3.48413 17.9403H5.47448V15.2955C5.47448 13.3848 7.12768 11.6994 9.09085 11.6994H14.873C16.4825 11.6994 17.7674 10.3742 17.7674 8.75774V3.24548C17.7674 1.67666 16.4439 0.498171 14.873 0.236342C13.8785 0.0708039 12.8467 -0.00439988 11.8571 0.000198473ZM8.72651 1.77465C9.32446 1.77465 9.81277 2.27093 9.81277 2.88115C9.81277 3.4892 9.32446 3.9809 8.72651 3.9809C8.12642 3.9809 7.64025 3.4892 7.64025 2.88115C7.64025 2.27093 8.12642 1.77465 8.72651 1.77465Z" fill="#667085"/>
<path d="M18.4893 6.18715V8.75774C18.4893 10.7507 16.7997 12.4281 14.873 12.4281H9.09085C7.50702 12.4281 6.19641 13.7836 6.19641 15.3697V20.882C6.19641 22.4508 7.5606 23.3736 9.09085 23.8237C10.9233 24.3625 12.6805 24.4599 14.873 23.8237C16.3304 23.4017 17.7674 22.5525 17.7674 20.882V18.6758H11.9853V17.9403H20.6619C22.3443 17.9403 22.9712 16.7668 23.5563 15.0054C24.1607 13.1921 24.135 11.4483 23.5563 9.12207C23.1405 7.44722 22.3464 6.18715 20.6619 6.18715H18.4893ZM15.2373 20.1466C15.8374 20.1466 16.3236 20.6383 16.3236 21.2463C16.3236 21.8566 15.8374 22.3528 15.2373 22.3528C14.6394 22.3528 14.1511 21.8566 14.1511 21.2463C14.1511 20.6383 14.6394 20.1466 15.2373 20.1466Z" fill="currentColor"/>
</g>
<defs>
<clipPath id="clip0_16_18">
<rect width="24" height="24" fill="white"/>
</clipPath>
</defs>
</svg>
