<svg width="24" height="24" viewBox="0 0 24 24" fill="none" xmlns="http://www.w3.org/2000/svg">
<path d="M14.0502 12.002C14.0502 13.1342 13.1324 14.052 12.0002 14.052C10.868 14.052 9.9502 13.1342 9.9502 12.002C9.9502 10.8699 10.868 9.95204 12.0002 9.95204C13.1324 9.95204 14.0502 10.8699 14.0502 12.002Z" fill="#667085"/>
<path fill-rule="evenodd" clip-rule="evenodd" d="M18.9548 6.82994C18.8873 7.25091 18.7958 7.69042 18.6808 8.14484C19.1318 8.27251 19.5582 8.41298 19.9565 8.56506C20.9852 8.95783 21.8521 9.43771 22.4706 9.99604C23.089 10.5543 23.5 11.2313 23.5 12.002C23.5 12.7727 23.089 13.4497 22.4706 14.008C21.8521 14.5663 20.9852 15.0462 19.9565 15.439C19.5582 15.591 19.1318 15.7315 18.6808 15.8592C18.7958 16.3136 18.8873 16.7531 18.9548 17.1741C19.1289 18.2613 19.1468 19.252 18.9725 20.0668C18.7983 20.8816 18.4174 21.576 17.75 21.9613C17.0826 22.3466 16.2908 22.3293 15.4981 22.0728C14.7053 21.8163 13.8563 21.3055 13.0018 20.611C12.6709 20.3422 12.3361 20.0431 12 19.7164C11.6639 20.0431 11.3291 20.3422 10.9982 20.611C10.1437 21.3055 9.2947 21.8163 8.50192 22.0728C7.70922 22.3293 6.91742 22.3466 6.25 21.9613C5.58258 21.576 5.20174 20.8816 5.02747 20.0668C4.85319 19.252 4.87105 18.2613 5.04524 17.1741C5.11269 16.7531 5.20424 16.3136 5.31918 15.8592C4.86816 15.7315 4.44177 15.591 4.04347 15.439C3.01479 15.0462 2.14789 14.5663 1.52939 14.008C0.910952 13.4497 0.5 12.7727 0.5 12.002C0.5 11.2313 0.910952 10.5543 1.52939 9.99604C2.14789 9.43771 3.01479 8.95783 4.04347 8.56506C4.44177 8.41299 4.86816 8.27251 5.31918 8.14484C5.20424 7.69042 5.11269 7.25091 5.04524 6.82994C4.87105 5.7427 4.85319 4.75199 5.02747 3.9372C5.20174 3.12247 5.58258 2.42806 6.25 2.04273C6.91742 1.65739 7.70922 1.67477 8.50192 1.93122C9.2947 2.18769 10.1437 2.69851 10.9982 3.39299C11.3291 3.66188 11.6639 3.96091 12 4.28767C12.3361 3.96091 12.6709 3.66188 13.0018 3.39299C13.8563 2.69851 14.7053 2.18769 15.4981 1.93122C16.2908 1.67477 17.0826 1.65739 17.75 2.04273C18.4174 2.42806 18.7983 3.12247 18.9725 3.93719C19.1468 4.75199 19.1289 5.7427 18.9548 6.82994ZM8.79571 10.152C9.15414 9.53119 9.52686 8.93888 9.90837 8.37922C10.5838 8.32865 11.2831 8.30202 12 8.30202C12.7169 8.30202 13.4162 8.32865 14.0916 8.37922C14.4731 8.93888 14.8459 9.53119 15.2043 10.152C15.5627 10.7728 15.8893 11.3918 16.1832 12.002C15.8893 12.6123 15.5627 13.2312 15.2043 13.852C14.8459 14.4728 14.4731 15.0652 14.0916 15.6248C13.4162 15.6754 12.7169 15.702 12 15.702C11.2831 15.702 10.5838 15.6754 9.90838 15.6248C9.52686 15.0652 9.15414 14.4728 8.79571 13.852C8.43727 13.2312 8.11067 12.6123 7.81675 12.002C8.11067 11.3918 8.43727 10.7728 8.79571 10.152ZM7.92968 9.65202C8.15609 9.25987 8.38848 8.8779 8.62565 8.50716C7.89878 8.59836 7.2078 8.71805 6.56191 8.86234C6.7599 9.49383 7.00173 10.1521 7.28619 10.8272C7.48868 10.4364 7.70328 10.0442 7.92968 9.65202ZM12 7.30202C11.5472 7.30202 11.1002 7.31229 10.6605 7.33232C11.103 6.74842 11.5521 6.20986 12 5.72266C12.4479 6.20986 12.897 6.74842 13.3395 7.33232C12.8998 7.31229 12.4528 7.30202 12 7.30202ZM9.35572 7.42199C9.98804 6.52837 10.6439 5.71634 11.3023 5.00409C10.9871 4.69759 10.6745 4.41852 10.3675 4.16901C9.56848 3.51959 8.8283 3.08783 8.19412 2.88267C7.55987 2.67749 7.087 2.71419 6.75 2.90875C6.413 3.10332 6.14478 3.49449 6.00535 4.14636C5.86594 4.79815 5.86976 5.65505 6.03265 6.67175C6.09523 7.06237 6.18065 7.47259 6.28845 7.89886C7.23452 7.68473 8.26566 7.52278 9.35572 7.42199ZM14.6443 7.42199C14.012 6.52837 13.3561 5.71634 12.6977 5.00409C13.0129 4.69759 13.3255 4.41852 13.6325 4.16901C14.4315 3.51959 15.1717 3.08783 15.8059 2.88267C16.4401 2.67749 16.913 2.71419 17.25 2.90875C17.587 3.10332 17.8552 3.49449 17.9946 4.14636C18.1341 4.79815 18.1302 5.65505 17.9673 6.67175C17.9048 7.06237 17.8194 7.47259 17.7116 7.89886C16.7655 7.68473 15.7343 7.52278 14.6443 7.42199ZM15.3743 8.50716C16.1012 8.59836 16.7922 8.71805 17.4381 8.86234C17.2401 9.49383 16.9983 10.1521 16.7138 10.8272C16.5113 10.4364 16.2967 10.0442 16.0703 9.65202C15.8439 9.25987 15.6115 8.8779 15.3743 8.50716ZM18.4092 9.10725C18.1216 10.0336 17.7463 11.0076 17.2886 12.002C17.7463 12.9964 18.1216 13.9704 18.4092 14.8968C18.8323 14.777 19.2302 14.6459 19.5998 14.5048C20.5618 14.1375 21.3058 13.7123 21.8005 13.2657C22.2953 12.819 22.5 12.3911 22.5 12.002C22.5 11.6129 22.2953 11.185 21.8005 10.7383C21.3058 10.2917 20.5618 9.86656 19.5998 9.49928C19.2302 9.35817 18.8323 9.22703 18.4092 9.10725ZM16.0703 14.352C16.2967 13.9599 16.5113 13.5676 16.7138 13.1769C16.9983 13.852 17.2401 14.5102 17.4381 15.1417C16.7922 15.286 16.1012 15.4057 15.3743 15.4969C15.6115 15.1261 15.8439 14.7442 16.0703 14.352ZM14.6443 16.582C15.7343 16.4813 16.7655 16.3193 17.7116 16.1052C17.8194 16.5314 17.9048 16.9417 17.9673 17.3323C18.1302 18.349 18.1341 19.2059 17.9946 19.8577C17.8552 20.5095 17.587 20.9007 17.25 21.0953C16.913 21.2899 16.4401 21.3265 15.8059 21.1214C15.1717 20.9162 14.4315 20.4844 13.6325 19.835C13.3255 19.5855 13.0129 19.3064 12.6977 18.9999C13.3561 18.2877 14.012 17.4757 14.6443 16.582ZM13.3395 16.6717C12.897 17.2556 12.4479 17.7942 12 18.2814C11.5521 17.7942 11.103 17.2556 10.6605 16.6717C11.1002 16.6917 11.5472 16.702 12 16.702C12.4528 16.702 12.8998 16.6917 13.3395 16.6717ZM7.92968 14.352C8.15609 14.7442 8.38848 15.1261 8.62565 15.4969C7.89878 15.4057 7.2078 15.286 6.56191 15.1417C6.7599 14.5102 7.00173 13.852 7.28619 13.1769C7.48868 13.5676 7.70328 13.9599 7.92968 14.352ZM9.35572 16.582C8.26566 16.4813 7.23452 16.3193 6.28845 16.1052C6.18065 16.5314 6.09523 16.9417 6.03265 17.3323C5.86976 18.349 5.86594 19.2059 6.00535 19.8577C6.14478 20.5095 6.413 20.9007 6.75 21.0953C7.087 21.2899 7.55987 21.3265 8.19412 21.1214C8.8283 20.9162 9.56848 20.4844 10.3675 19.835C10.6745 19.5855 10.9871 19.3064 11.3023 18.9999C10.6439 18.2877 9.98804 17.4757 9.35572 16.582ZM4.40018 14.5048C4.76976 14.6459 5.16772 14.777 5.59079 14.8968C5.87837 13.9704 6.2537 12.9964 6.71144 12.002C6.2537 11.0076 5.87837 10.0336 5.59079 9.10725C5.16772 9.22703 4.76976 9.35817 4.40018 9.49928C3.43825 9.86656 2.69424 10.2917 2.19947 10.7383C1.70466 11.185 1.5 11.6129 1.5 12.002C1.5 12.3911 1.70466 12.819 2.19947 13.2657C2.69424 13.7123 3.43825 14.1375 4.40018 14.5048Z" fill="currentColor"/>
</svg>
